<svg xmlns="http://www.w3.org/2000/svg" viewBox="0 0 400 120" fill="none">
  <g fill="#f5f5f5">
    <!-- Ornamental A emblem -->
    <g transform="translate(60,60)">
      <path d="M0-50 L4-46 C12-38 18-28 18-18 L18-8 C18 2 12 12 4 20 L0 24 L-4 20 C-12 12-18 2-18-8 L-18-18 C-18-28-12-38-4-46 Z" stroke="#f5f5f5" stroke-width="1.5" fill="none"/>
      <path d="M0-50 C-3-44-8-40-8-34 C-8-28-4-24 0-22 C4-24 8-28 8-34 C8-40 3-44 0-50Z" fill="#f5f5f5"/>
      <path d="M0-54 L0-58 M-3-55 C-3-58-1-60 0-62 M3-55 C3-58 1-60 0-62" stroke="#f5f5f5" stroke-width="1.2"/>
      <path d="M0 24 C-3 30-8 34-8 40 C-8 46-4 50 0 52 C4 50 8 46 8 40 C8 34 3 30 0 24Z" fill="#f5f5f5"/>
      <path d="M0 56 L0 60 M-3 57 C-3 60-1 62 0 64 M3 57 C3 60 1 62 0 64" stroke="#f5f5f5" stroke-width="1.2"/>
      <path d="M-18-8 C-24-8-30-4-34 0 C-38 4-40 10-38 16 C-36 22-30 24-24 22 C-18 20-16 14-18 8" stroke="#f5f5f5" stroke-width="1.5" fill="none"/>
      <path d="M-34 0 C-40-2-46 0-50 4 C-54 8-54 14-50 18" stroke="#f5f5f5" stroke-width="1.2" fill="none"/>
      <circle cx="-52" cy="20" r="2" fill="#f5f5f5"/>
      <path d="M18-8 C24-8 30-4 34 0 C38 4 40 10 38 16 C36 22 30 24 24 22 C18 20 16 14 18 8" stroke="#f5f5f5" stroke-width="1.5" fill="none"/>
      <path d="M34 0 C40-2 46 0 50 4 C54 8 54 14 50 18" stroke="#f5f5f5" stroke-width="1.2" fill="none"/>
      <circle cx="52" cy="20" r="2" fill="#f5f5f5"/>
      <path d="M-4-46 C-10-42-16-36-20-28 C-24-20-24-12-20-6" stroke="#f5f5f5" stroke-width="1.3" fill="none"/>
      <path d="M-20-28 C-26-30-32-28-36-24 C-40-20-40-14-36-10" stroke="#f5f5f5" stroke-width="1.2" fill="none"/>
      <circle cx="-38" cy="-8" r="2" fill="#f5f5f5"/>
      <path d="M4-46 C10-42 16-36 20-28 C24-20 24-12 20-6" stroke="#f5f5f5" stroke-width="1.3" fill="none"/>
      <path d="M20-28 C26-30 32-28 36-24 C40-20 40-14 36-10" stroke="#f5f5f5" stroke-width="1.2" fill="none"/>
      <circle cx="38" cy="-8" r="2" fill="#f5f5f5"/>
      <path d="M-4 20 C-10 16-16 12-20 6" stroke="#f5f5f5" stroke-width="1.3" fill="none"/>
      <path d="M-20 30 C-26 32-32 30-36 26" stroke="#f5f5f5" stroke-width="1.2" fill="none"/>
      <path d="M4 20 C10 16 16 12 20 6" stroke="#f5f5f5" stroke-width="1.3" fill="none"/>
      <path d="M20 30 C26 32 32 30 36 26" stroke="#f5f5f5" stroke-width="1.2" fill="none"/>
      <text x="0" y="10" text-anchor="middle" font-family="'Georgia',serif" font-size="42" font-weight="700" fill="#f5f5f5">A</text>
    </g>
    <text x="152" y="74" font-family="'Georgia',serif" font-size="56" font-weight="400" letter-spacing="8" fill="#f5f5f5">ADAM</text>
  </g>
</svg>